<svg width="22" height="21" viewBox="0 0 22 21" fill="none" xmlns="http://www.w3.org/2000/svg">
  <path
    d="M10.44 0.580038C10.7212 0.299137 11.1025 0.141357 11.5 0.141357C11.8975 0.141357 12.2787 0.299137 12.56 0.580038L21.06 9.08004C21.3409 9.36129 21.4987 9.74254 21.4987 10.14C21.4987 10.5375 21.3409 10.9188 21.06 11.2L12.56 19.7C12.2755 19.9649 11.8994 20.1091 11.5107 20.1023C11.1221 20.0956 10.7512 19.9385 10.476 19.664C10.2015 19.3888 10.0444 19.0179 10.0377 18.6293C10.031 18.2407 10.1752 17.8646 10.44 17.58L16.38 11.64L1.49998 11.64C1.10215 11.64 0.720623 11.482 0.439318 11.2007C0.158012 10.9194 -2.28882e-05 10.5379 -2.28882e-05 10.14C-2.28882e-05 9.74221 0.158012 9.36068 0.439318 9.07938C0.720623 8.79807 1.10215 8.64004 1.49998 8.64004L16.38 8.64004L10.44 2.70004C10.1591 2.41879 10.0013 2.03754 10.0013 1.64004C10.0013 1.24254 10.1591 0.861288 10.44 0.580038Z"
    fill="currentColor" />
</svg>