<svg width="24" height="24" viewBox="0 0 24 24" fill="none" xmlns="http://www.w3.org/2000/svg">
<g id="skill-icons:html" clip-path="url(#clip0_415_115)">
<g id="Group">
<path id="Vector" d="M18.375 0H5.625C2.5184 0 0 2.5184 0 5.625V18.375C0 21.4816 2.5184 24 5.625 24H18.375C21.4816 24 24 21.4816 24 18.375V5.625C24 2.5184 21.4816 0 18.375 0Z" fill="#E14E1D"/>
<path id="Vector_2" d="M4.5 3.5625L5.30719 12.6181H15.6863L15.338 16.5022L11.9962 17.4057L8.66062 16.5035L8.43759 14.0095H5.43187L5.86172 18.8171L11.9955 20.5208L18.1371 18.8171L18.9605 9.62391H8.046L7.77197 6.55734H19.2318L19.5 3.5625H4.5Z" fill="white"/>
<path id="Vector_3" d="M12 3.5625H4.5L5.30719 12.6181H12V9.62391H8.046L7.77197 6.55734H12V3.5625ZM12 17.4044L11.9962 17.4057L8.66062 16.5035L8.43759 14.0095H5.43187L5.86172 18.8171L11.9955 20.5208L12.0001 20.5194V17.4044H12Z" fill="#EBEBEB"/>
</g>
</g>
<defs>
<clipPath id="clip0_415_115">
<rect width="24" height="24" fill="white"/>
</clipPath>
</defs>
</svg>
