<svg width="24" height="24" viewBox="0 0 24 24" fill="none" xmlns="http://www.w3.org/2000/svg">
<g id="Group">
<path id="Vector" d="M18.375 0H5.625C2.5184 0 0 2.5184 0 5.625V18.375C0 21.4816 2.5184 24 5.625 24H18.375C21.4816 24 24 21.4816 24 18.375V5.625C24 2.5184 21.4816 0 18.375 0Z" fill="#F0DB4F"/>
<path id="Vector_2" d="M6.3105 20.0562L8.14707 18.9447C8.50144 19.5729 8.82375 20.1045 9.59691 20.1045C10.338 20.1045 10.8053 19.8146 10.8053 18.687V11.0184H13.0607V18.7188C13.0607 21.0548 11.6914 22.1181 9.69357 22.1181C7.88935 22.1181 6.84207 21.1837 6.31041 20.056M14.2857 19.8145L16.1221 18.7513C16.6056 19.5407 17.2339 20.1207 18.3454 20.1207C19.28 20.1207 19.8758 19.6534 19.8758 19.009C19.8758 18.2357 19.2637 17.9618 18.2326 17.5109L17.6689 17.2691C16.0417 16.5765 14.9622 15.7065 14.9622 13.8699C14.9622 12.1783 16.2511 10.8894 18.2649 10.8894C19.6988 10.8894 20.7298 11.3889 21.4708 12.6938L19.7148 13.8215C19.3281 13.1288 18.9094 12.855 18.2649 12.855C17.6044 12.855 17.1855 13.2738 17.1855 13.8215C17.1855 14.4981 17.6044 14.7721 18.5709 15.191L19.1348 15.4326C21.0518 16.2543 22.1313 17.0919 22.1313 18.9767C22.1313 21.0068 20.5364 22.1183 18.3938 22.1183C16.2995 22.1183 14.9462 21.1195 14.2857 19.8145Z" fill="#323330"/>
</g>
</svg>
