<svg width="36" height="36" viewBox="0 0 36 36" fill="none" xmlns="http://www.w3.org/2000/svg">
<path d="M32 -0.0078125C33.0609 -0.0078125 34.0783 0.413615 34.8284 1.16376C35.5786 1.91391 36 2.93132 36 3.99219V31.9922C36 33.0531 35.5786 34.0705 34.8284 34.8206C34.0783 35.5708 33.0609 35.9922 32 35.9922H4C2.93913 35.9922 1.92172 35.5708 1.17157 34.8206C0.421427 34.0705 0 33.0531 0 31.9922V3.99219C0 2.93132 0.421427 1.91391 1.17157 1.16376C1.92172 0.413615 2.93913 -0.0078125 4 -0.0078125H32ZM31 30.9922V20.3922C31 18.663 30.3131 17.0046 29.0903 15.7819C27.8676 14.5591 26.2092 13.8722 24.48 13.8722C22.78 13.8722 20.8 14.9122 19.84 16.4722V14.2522H14.26V30.9922H19.84V21.1322C19.84 19.5922 21.08 18.3322 22.62 18.3322C23.3626 18.3322 24.0748 18.6272 24.5999 19.1523C25.125 19.6774 25.42 20.3896 25.42 21.1322V30.9922H31ZM7.76 11.1122C8.65113 11.1122 9.50576 10.7582 10.1359 10.1281C10.766 9.49794 11.12 8.64332 11.12 7.75219C11.12 5.89219 9.62 4.37219 7.76 4.37219C6.86357 4.37219 6.00385 4.72829 5.36998 5.36217C4.73611 5.99604 4.38 6.85576 4.38 7.75219C4.38 9.61219 5.9 11.1122 7.76 11.1122ZM10.54 30.9922V14.2522H5V30.9922H10.54Z" fill="#E1E1E1"/>
</svg>
