<svg width="24" height="24" viewBox="0 0 24 24" fill="none" xmlns="http://www.w3.org/2000/svg">
<g id="logos:nodejs-icon" clip-path="url(#clip0_415_197)">
<path id="Vector" d="M12 23.9554C11.6274 23.9554 11.2796 23.8674 10.9567 23.7134L7.65276 21.9747C7.15596 21.7327 7.40436 21.6446 7.5534 21.6006C8.22409 21.4026 8.34829 21.3585 9.04382 21.0064C9.11843 20.9623 9.21779 20.9843 9.29222 21.0284L11.8261 22.3709C11.9255 22.4149 12.0497 22.4149 12.1242 22.3709L22.0359 17.2871C22.1353 17.2431 22.185 17.1551 22.185 17.045V6.89934C22.185 6.7893 22.1353 6.70127 22.0359 6.65726L12.1242 1.59542C12.0248 1.5514 11.9006 1.5514 11.8261 1.59542L1.91438 6.65734C1.81502 6.70136 1.76534 6.81139 1.76534 6.89942V17.045C1.76534 17.1331 1.81502 17.2431 1.91438 17.2871L4.62215 18.6735C6.08782 19.3337 7.00682 18.5635 7.00682 17.7933V7.77961C7.00682 7.64757 7.13112 7.51553 7.305 7.51553H8.57194C8.72099 7.51553 8.87003 7.62556 8.87003 7.77961V17.7932C8.87003 19.5318 7.8018 20.5441 5.93869 20.5441C5.36736 20.5441 4.92024 20.5441 3.65338 19.994L1.04497 18.6735C0.399123 18.3433 0.00167847 17.7272 0.00167847 17.0669V6.92143C0.00167847 6.26122 0.399123 5.64502 1.04497 5.31484L10.9567 0.231073C11.5777 -0.0770242 12.4223 -0.0770242 13.0433 0.231073L22.955 5.31484C23.6009 5.64494 23.9983 6.26113 23.9983 6.92143V17.067C23.9983 17.7272 23.6009 18.3434 22.955 18.6735L13.0433 23.7575C12.7204 23.8895 12.3478 23.9555 12 23.9555V23.9554ZM15.0554 16.9789C10.7082 16.9789 9.81396 15.2184 9.81396 13.7218C9.81396 13.5898 9.93816 13.4577 10.112 13.4577H11.4037C11.5528 13.4577 11.6771 13.5458 11.6771 13.6778C11.8758 14.8442 12.4471 15.4164 15.0803 15.4164C17.167 15.4164 18.0613 14.9983 18.0613 14.008C18.0613 13.4357 17.8129 13.0176 14.5586 12.7314C11.851 12.4893 10.1617 11.9612 10.1617 10.0466C10.1617 8.26385 11.8509 7.20752 14.6828 7.20752C17.8625 7.20752 19.4275 8.17582 19.6262 10.2886C19.6262 10.3546 19.6014 10.4206 19.5517 10.4866C19.502 10.5306 19.4275 10.5747 19.353 10.5747H18.0613C17.937 10.5747 17.8129 10.4866 17.788 10.3766C17.4899 9.16621 16.7198 8.77009 14.6828 8.77009C12.3975 8.77009 12.1242 9.47431 12.1242 10.0025C12.1242 10.6408 12.4471 10.8387 15.5274 11.1909C18.5829 11.543 20.0237 12.0492 20.0237 13.9419C19.9988 15.8786 18.2103 16.9789 15.0554 16.9789Z" fill="#539E43"/>
</g>
<defs>
<clipPath id="clip0_415_197">
<rect width="24" height="24" fill="white"/>
</clipPath>
</defs>
</svg>
