<svg width="24" height="24" viewBox="0 0 24 24" fill="none" xmlns="http://www.w3.org/2000/svg">
<g id="logos:python" clip-path="url(#clip0_415_174)">
<path id="Vector" d="M11.9467 0.00683594C5.84489 0.00683594 6.22588 2.65295 6.22588 2.65295L6.23265 5.39441H12.0555V6.21747H3.9199C3.9199 6.21747 0.0153351 5.77465 0.0153351 11.9314C0.0153351 18.0882 3.42334 17.8699 3.42334 17.8699H5.45722V15.0129C5.45722 15.0129 5.34757 11.6049 8.81082 11.6049H14.5861C14.5861 11.6049 17.8308 11.6573 17.8308 8.46895V3.19724C17.8308 3.19724 18.3236 0.00683594 11.9467 0.00683594ZM8.73599 1.85041C8.87359 1.85029 9.00986 1.8773 9.13701 1.9299C9.26416 1.9825 9.37969 2.05965 9.47699 2.15695C9.57428 2.25425 9.65144 2.36978 9.70404 2.49692C9.75664 2.62407 9.78365 2.76034 9.78352 2.89794C9.78365 3.03554 9.75664 3.17181 9.70404 3.29896C9.65144 3.42611 9.57428 3.54164 9.47699 3.63893C9.37969 3.73623 9.26416 3.81339 9.13701 3.86599C9.00986 3.91858 8.87359 3.9456 8.73599 3.94547C8.5984 3.9456 8.46212 3.91858 8.33498 3.86599C8.20783 3.81339 8.0923 3.73623 7.995 3.63893C7.89771 3.54164 7.82055 3.42611 7.76795 3.29896C7.71535 3.17181 7.68834 3.03554 7.68846 2.89794C7.68834 2.76034 7.71535 2.62407 7.76795 2.49692C7.82055 2.36978 7.89771 2.25425 7.995 2.15695C8.0923 2.05965 8.20783 1.9825 8.33498 1.9299C8.46212 1.8773 8.5984 1.85029 8.73599 1.85041Z" fill="url(#paint0_linear_415_174)"/>
<path id="Vector_2" d="M12.12 23.9177C18.2218 23.9177 17.8409 21.2716 17.8409 21.2716L17.8341 18.5302H12.0111V17.7072H20.1467C20.1467 17.7072 24.0513 18.15 24.0513 11.9931C24.0513 5.83632 20.6433 6.05467 20.6433 6.05467H18.6094V8.91161C18.6094 8.91161 18.7191 12.3196 15.2558 12.3196H9.48057C9.48057 12.3196 6.23586 12.2672 6.23586 15.4556V20.7274C6.23586 20.7274 5.74316 23.9177 12.1199 23.9177H12.12ZM15.3307 22.0743C15.1931 22.0745 15.0569 22.0475 14.9297 21.9949C14.8026 21.9423 14.687 21.8651 14.5897 21.7678C14.4924 21.6705 14.4153 21.555 14.3627 21.4278C14.3101 21.3007 14.2831 21.1644 14.2832 21.0268C14.2831 20.8892 14.3101 20.7529 14.3627 20.6258C14.4153 20.4986 14.4924 20.3831 14.5897 20.2858C14.687 20.1885 14.8025 20.1113 14.9297 20.0587C15.0568 20.0061 15.1931 19.9791 15.3307 19.9792C15.4683 19.9791 15.6046 20.0061 15.7318 20.0587C15.8589 20.1113 15.9744 20.1884 16.0717 20.2857C16.169 20.383 16.2462 20.4985 16.2988 20.6257C16.3514 20.7528 16.3784 20.8891 16.3783 21.0267C16.3784 21.1643 16.3514 21.3006 16.2988 21.4277C16.2462 21.5549 16.169 21.6704 16.0717 21.7677C15.9744 21.865 15.8589 21.9422 15.7318 21.9948C15.6046 22.0474 15.4683 22.0745 15.3307 22.0743Z" fill="url(#paint1_linear_415_174)"/>
</g>
<defs>
<linearGradient id="paint0_linear_415_174" x1="231" y1="215.072" x2="1422.15" y2="1394.34" gradientUnits="userSpaceOnUse">
<stop stop-color="#387EB8"/>
<stop offset="1" stop-color="#366994"/>
</linearGradient>
<linearGradient id="paint1_linear_415_174" x1="347.17" y1="373.677" x2="1626.33" y2="1582.91" gradientUnits="userSpaceOnUse">
<stop stop-color="#FFE052"/>
<stop offset="1" stop-color="#FFC331"/>
</linearGradient>
<clipPath id="clip0_415_174">
<rect width="24.0975" height="24" fill="white"/>
</clipPath>
</defs>
</svg>
