<svg width="24" height="24" viewBox="0 0 24 24" fill="none" xmlns="http://www.w3.org/2000/svg">
<path id="Vector" d="M19.7327 7.77093C19.4773 7.67254 19.2197 7.58138 18.9602 7.49756C19.0038 7.29756 19.0439 7.09998 19.0795 6.90588C19.6643 3.7184 19.282 1.15051 17.9762 0.305034C16.7242 -0.505492 14.6766 0.339666 12.6087 2.3604C12.4049 2.55991 12.2056 2.76517 12.011 2.97598C11.8808 2.8358 11.7482 2.69834 11.6134 2.56367C9.44611 0.403034 7.27375 -0.507597 5.96931 0.340297C4.71841 1.15335 4.34801 3.56735 4.87451 6.58819C4.92689 6.88738 4.98603 7.18502 5.05188 7.48082C4.74438 7.57893 4.44767 7.68335 4.1637 7.79451C1.62271 8.78924 0 10.3481 0 11.965C0 13.635 1.74205 15.3101 4.3886 16.3258C4.60316 16.4078 4.81951 16.4838 5.03744 16.5537C4.96667 16.8723 4.90383 17.193 4.84901 17.5156C4.34707 20.484 4.73904 22.8409 5.98656 23.6488C7.27506 24.4831 9.43767 23.6257 11.5434 21.5588C11.7141 21.3908 11.8811 21.218 12.0442 21.0406C12.2549 21.2689 12.4712 21.4905 12.6929 21.7052C14.7327 23.676 16.7472 24.4718 17.9935 23.6617C19.2808 22.8249 19.6992 20.2929 19.156 17.2124C19.1132 16.9711 19.0653 16.7309 19.0121 16.4922C19.164 16.4417 19.3131 16.3897 19.4584 16.3356C22.2097 15.3121 23.9999 13.6573 23.9999 11.965C23.9999 10.3422 22.3248 8.77282 19.7327 7.77093ZM19.136 15.2429C19.0047 15.2917 18.8701 15.3387 18.7328 15.3845C18.4291 14.3048 18.0192 13.1568 17.5176 11.9706C17.9963 10.8127 18.3904 9.67935 18.6856 8.60672C18.9311 8.68651 19.1693 8.77061 19.399 8.85935C21.62 9.71788 22.9746 10.987 22.9746 11.965C22.9746 13.0067 21.5116 14.359 19.136 15.2429ZM18.1503 17.436C18.3905 18.7981 18.4247 20.0297 18.2656 20.9925C18.1227 21.8577 17.8353 22.4344 17.4798 22.6655C16.7235 23.157 15.1061 22.5181 13.3617 20.8326C13.1554 20.633 12.9542 20.4269 12.7582 20.2147C13.4345 19.3843 14.1103 18.4189 14.77 17.3467C15.9302 17.2311 17.0263 17.0421 18.0203 16.7841C18.0682 17.0002 18.1116 17.2176 18.1503 17.436ZM8.18208 22.5805C7.44315 22.8735 6.85459 22.8819 6.49881 22.6516C5.74178 22.1614 5.42707 20.2688 5.85635 17.7303C5.90738 17.4303 5.9658 17.132 6.03156 16.8357C7.01462 17.0799 8.10277 17.2555 9.26574 17.3614C9.92986 18.4105 10.6252 19.3748 11.326 20.2192C11.177 20.381 11.0246 20.5387 10.8688 20.6921C9.93754 21.606 9.00446 22.2544 8.18208 22.5805ZM4.72029 15.2365C3.55001 14.7874 2.58355 14.2037 1.92112 13.5667C1.32581 12.9944 1.02534 12.4261 1.02534 11.965C1.02534 10.9838 2.32818 9.73219 4.5012 8.88156C4.76491 8.7784 5.04091 8.68103 5.32732 8.58967C5.62769 9.68651 6.02163 10.8333 6.49703 11.993C6.01544 13.1699 5.61588 14.335 5.3126 15.4448C5.11367 15.3808 4.91618 15.3114 4.72029 15.2365ZM5.88072 6.36703C5.42969 3.77893 5.72922 1.82661 6.48306 1.33661C7.28593 0.814718 9.06136 1.55882 10.9327 3.42451C11.0547 3.54644 11.1748 3.67085 11.2928 3.79767C10.5955 4.6384 9.90651 5.59556 9.2483 6.63851C8.11955 6.75598 7.03909 6.94461 6.04572 7.19735C5.98452 6.92221 5.9295 6.64528 5.88072 6.36703ZM16.2332 9.23735C15.9986 8.78229 15.7552 8.33296 15.5034 7.88967C16.2691 7.9984 17.0028 8.14272 17.6918 8.31914C17.4849 9.06356 17.2271 9.84177 16.9237 10.6397C16.7018 10.1671 16.4716 9.69958 16.2332 9.23735ZM12.0115 4.6204C12.4843 5.19567 12.958 5.83788 13.4238 6.53472C12.4788 6.48461 11.5322 6.4844 10.5872 6.53409C11.0535 5.84367 11.5312 5.2023 12.0115 4.6204ZM7.76265 9.24524C7.52718 9.70375 7.30128 10.1684 7.08512 10.6387C6.78662 9.84367 6.53116 9.06188 6.32256 8.30693C7.00731 8.13493 7.73752 7.9943 8.4984 7.88756C8.24372 8.33356 7.9984 8.78632 7.76265 9.24524ZM8.52024 16.1244C7.73415 16.0259 6.99297 15.8925 6.30841 15.7251C6.52028 14.9567 6.78137 14.1583 7.08634 13.3462C7.30335 13.8169 7.5302 14.2818 7.76668 14.7405C8.00987 15.2121 8.26168 15.674 8.52024 16.1244ZM12.0398 19.3907C11.5538 18.8021 11.0691 18.1508 10.5958 17.4504C11.0553 17.4706 11.5238 17.4809 11.9999 17.4809C12.4891 17.4809 12.9727 17.4686 13.4487 17.4448C12.9813 18.1579 12.5095 18.8101 12.0398 19.3907ZM16.9333 13.3047C17.2541 14.1258 17.5245 14.92 17.7392 15.6752C17.0434 15.8536 16.2921 15.9971 15.5005 16.1038C15.7541 15.6522 15.9998 15.1951 16.2372 14.7326C16.4787 14.2625 16.7108 13.7864 16.9333 13.3047ZM15.3491 14.1575C14.9856 14.8665 14.6016 15.5622 14.1978 16.2432C13.4663 16.3014 12.7332 16.3303 11.9999 16.3299C11.253 16.3299 10.5266 16.3038 9.82701 16.2528C9.41266 15.5733 9.02135 14.8765 8.65393 14.1638C8.28823 13.4548 7.94673 12.7306 7.62999 11.9925C7.94593 11.2543 8.28648 10.5297 8.65093 9.82019L8.65083 9.8203C9.01514 9.11064 9.40333 8.41677 9.81455 7.74019C10.5283 7.67956 11.2602 7.64798 11.9998 7.64798C12.7429 7.64798 13.4758 7.67988 14.1894 7.74093C14.5964 8.41649 14.9821 9.10798 15.3458 9.81409C15.7114 10.522 16.0565 11.2431 16.3804 11.9762C16.0598 12.7168 15.7158 13.4443 15.3491 14.1575ZM17.4641 1.3023C18.2678 1.82272 18.5803 3.92135 18.0754 6.67346C18.0431 6.84903 18.0069 7.02788 17.9676 7.20924C16.9718 6.95114 15.8905 6.75924 14.7585 6.63998C14.0991 5.58556 13.4157 4.62693 12.7298 3.79703C12.9096 3.60246 13.0936 3.41292 13.2818 3.22861C15.0536 1.49735 16.7096 0.813771 17.4641 1.3023ZM11.9999 9.55872C13.1835 9.55872 14.1431 10.6361 14.1431 11.965C14.1431 13.294 13.1835 14.3714 11.9999 14.3714C10.8164 14.3714 9.85683 13.294 9.85683 11.965C9.85683 10.6361 10.8164 9.55872 11.9999 9.55872Z" fill="#00D8FF"/>
</svg>
