<svg width="24" height="24" viewBox="0 0 24 24" fill="none" xmlns="http://www.w3.org/2000/svg">
<g id="vscode-icons:file-type-rust">
<path id="Vector" d="M11.343 3.97494C11.343 3.85153 11.3796 3.73088 11.4482 3.62827C11.5167 3.52565 11.6142 3.44567 11.7282 3.39844C11.8422 3.35121 11.9677 3.33886 12.0887 3.36293C12.2098 3.38701 12.321 3.44644 12.4082 3.53371C12.4955 3.62098 12.5549 3.73216 12.579 3.85321C12.6031 3.97425 12.5907 4.09972 12.5435 4.21374C12.4963 4.32776 12.4163 4.42521 12.3137 4.49378C12.2111 4.56235 12.0904 4.59894 11.967 4.59894C11.885 4.59904 11.8038 4.58297 11.7281 4.55164C11.6523 4.52032 11.5835 4.47436 11.5255 4.4164C11.4676 4.35843 11.4216 4.28961 11.3903 4.21385C11.359 4.1381 11.3429 4.05692 11.343 3.97494ZM3.9 9.62544C3.9 9.50203 3.9366 9.38138 4.00517 9.27877C4.07373 9.17615 4.17119 9.09617 4.28521 9.04894C4.39923 9.00171 4.5247 8.98936 4.64574 9.01343C4.76678 9.03751 4.87797 9.09694 4.96524 9.18421C5.05251 9.27148 5.11194 9.38266 5.13601 9.50371C5.16009 9.62475 5.14773 9.75022 5.1005 9.86424C5.05328 9.97826 4.9733 10.0757 4.87068 10.1443C4.76806 10.2128 4.64742 10.2494 4.524 10.2494C4.44206 10.2494 4.36092 10.2333 4.28521 10.2019C4.2095 10.1706 4.14071 10.1246 4.08277 10.0667C4.02483 10.0087 3.97886 9.93994 3.9475 9.86424C3.91614 9.78853 3.9 9.70739 3.9 9.62544ZM18.792 9.65469C18.792 9.53128 18.8286 9.41063 18.8972 9.30802C18.9657 9.2054 19.0632 9.12542 19.1772 9.07819C19.2912 9.03096 19.4167 9.01861 19.5377 9.04268C19.6588 9.06676 19.77 9.12619 19.8572 9.21346C19.9445 9.30073 20.0039 9.41191 20.028 9.53296C20.0521 9.654 20.0397 9.77947 19.9925 9.89349C19.9453 10.0075 19.8653 10.105 19.7627 10.1735C19.6601 10.2421 19.5394 10.2787 19.416 10.2787C19.334 10.2788 19.2528 10.2627 19.1771 10.2314C19.1013 10.2001 19.0325 10.1541 18.9745 10.0961C18.9166 10.0382 18.8706 9.96936 18.8393 9.8936C18.808 9.81785 18.7919 9.73667 18.792 9.65469ZM5.70375 10.5097C5.84132 10.4483 5.949 10.335 6.00324 10.1944C6.05749 10.0539 6.0539 9.89759 5.99325 9.75969L5.7165 9.13344H6.8055V14.0422H4.608C4.33677 13.0896 4.25222 12.0936 4.359 11.1089L5.70375 10.5097ZM10.2593 10.6304V9.18369H12.8528C12.987 9.18369 13.7985 9.33819 13.7985 9.94569C13.7985 10.4497 13.176 10.6304 12.6638 10.6304H10.2593ZM6.7185 18.4207C6.7185 18.2973 6.7551 18.1766 6.82367 18.074C6.89223 17.9714 6.98969 17.8914 7.10371 17.8442C7.21773 17.797 7.3432 17.7846 7.46424 17.8087C7.58528 17.8328 7.69647 17.8922 7.78374 17.9795C7.87101 18.0667 7.93044 18.1779 7.95451 18.299C7.97859 18.42 7.96623 18.5455 7.919 18.6595C7.87178 18.7735 7.7918 18.871 7.68918 18.9395C7.58656 19.0081 7.46592 19.0447 7.3425 19.0447C7.26053 19.0448 7.17934 19.0287 7.10359 18.9974C7.02784 18.9661 6.95901 18.9201 6.90105 18.8621C6.84309 18.8042 6.79713 18.7354 6.7658 18.6596C6.73448 18.5839 6.71841 18.5027 6.7185 18.4207ZM15.9668 18.4499C15.9668 18.3265 16.0033 18.2059 16.0719 18.1033C16.1405 18.0007 16.2379 17.9207 16.352 17.8734C16.466 17.8262 16.5914 17.8139 16.7125 17.8379C16.8335 17.862 16.9447 17.9214 17.032 18.0087C17.1193 18.096 17.1787 18.2072 17.2028 18.3282C17.2268 18.4493 17.2145 18.5747 17.1673 18.6887C17.12 18.8028 17.04 18.9002 16.9374 18.9688C16.8348 19.0373 16.7142 19.0739 16.5908 19.0739C16.4253 19.0739 16.2665 19.0082 16.1495 18.8912C16.0325 18.7742 15.9668 18.6154 15.9668 18.4499ZM16.1595 17.0347C16.0864 17.0191 16.011 17.018 15.9375 17.0316C15.864 17.0451 15.7939 17.073 15.7312 17.1137C15.6685 17.1544 15.6144 17.2071 15.5721 17.2687C15.5298 17.3302 15.5 17.3996 15.4845 17.4727L15.171 18.9344C14.1635 19.3907 13.0693 19.6241 11.9633 19.6188C10.8572 19.6135 9.76538 19.3696 8.76225 18.9037L8.4495 17.4419C8.41784 17.2945 8.32898 17.1657 8.20243 17.0837C8.07589 17.0017 7.92198 16.9733 7.7745 17.0047L6.48375 17.2822C6.24386 17.0352 6.02085 16.7724 5.81625 16.4954H12.0968C12.168 16.4954 12.2153 16.4827 12.2153 16.4204V14.1959C12.2153 14.1314 12.168 14.1209 12.0968 14.1209H10.2593V12.7102H12.246C12.5422 12.7132 12.8276 12.8213 13.0514 13.0153C13.2752 13.2093 13.4228 13.4765 13.4678 13.7692C13.5465 14.0789 13.7198 15.0869 13.8383 15.4094C13.956 15.7717 14.4383 16.4947 14.9498 16.4947H18.192C17.9746 16.7862 17.7367 17.0619 17.4803 17.3197L16.1595 17.0347ZM19.647 11.1689C19.6911 11.6124 19.6966 12.0588 19.6635 12.5032H18.8753C18.7965 12.5032 18.7643 12.5549 18.7643 12.6322V12.9944C18.7643 13.8464 18.2835 14.0324 17.8643 14.0797C17.463 14.1247 17.0183 13.9117 16.9643 13.6664C16.9353 13.2417 16.8068 12.8297 16.5891 12.4638C16.3714 12.0979 16.0705 11.7885 15.711 11.5604C16.4835 11.0699 17.286 10.3462 17.286 9.37719C17.2701 8.96549 17.1514 8.56432 16.9408 8.21023C16.7301 7.85614 16.4342 7.5604 16.08 7.34994C15.5859 7.02993 15.0176 6.84289 14.43 6.80694H6.27525C7.40251 5.54699 8.9138 4.69394 10.575 4.37994L11.5365 5.38794C11.588 5.44204 11.6497 5.48545 11.7179 5.51571C11.7862 5.54597 11.8598 5.56247 11.9345 5.56428C12.0091 5.56609 12.0834 5.55317 12.1531 5.52626C12.2228 5.49935 12.2864 5.45898 12.3405 5.40744L13.416 4.37844C14.5126 4.58418 15.5512 5.02619 16.4598 5.67377C17.3684 6.32135 18.125 7.15897 18.6773 8.12844L17.9408 9.79119C17.8803 9.92911 17.8768 10.0853 17.931 10.2258C17.9853 10.3663 18.0928 10.4797 18.2303 10.5412L19.647 11.1689ZM21.483 11.1959L21.4583 10.9387L22.2165 10.2314C22.2452 10.2015 22.2678 10.1663 22.2829 10.1276C22.2979 10.089 22.3052 10.0478 22.3043 10.0063C22.3034 9.96483 22.2943 9.92396 22.2776 9.88602C22.2608 9.84807 22.2368 9.81381 22.2068 9.78519C22.1802 9.75991 22.1495 9.73936 22.116 9.72444L21.15 9.36219L21.075 9.11169L21.6795 8.27169C21.7242 8.20092 21.739 8.11535 21.7207 8.03369C21.7024 7.95203 21.6526 7.88093 21.582 7.83594C21.5513 7.81669 21.5176 7.80274 21.4823 7.79469L20.46 7.62819L20.337 7.39869L20.7668 6.45594C20.782 6.41753 20.7894 6.37651 20.7888 6.33521C20.7881 6.2939 20.7793 6.25314 20.7628 6.21525C20.7464 6.17735 20.7227 6.14307 20.693 6.11436C20.6633 6.08566 20.6282 6.06309 20.5898 6.04794C20.5548 6.03432 20.5177 6.02696 20.4803 6.02619L19.443 6.06219L19.275 5.86419L19.5135 4.85394C19.5206 4.81307 19.5196 4.77119 19.5105 4.73071C19.5014 4.69022 19.4845 4.65193 19.4606 4.618C19.4367 4.58408 19.4063 4.5552 19.3713 4.53302C19.3362 4.51083 19.2971 4.49577 19.2563 4.48869C19.2205 4.48269 19.184 4.48269 19.1483 4.48869L18.1373 4.72494L17.9378 4.56069L17.9745 3.52494C17.9735 3.48347 17.9644 3.4426 17.9476 3.40467C17.9308 3.36673 17.9068 3.33247 17.8767 3.30384C17.8467 3.27522 17.8114 3.25279 17.7727 3.23783C17.734 3.22288 17.6927 3.2157 17.6513 3.21669C17.6151 3.21765 17.5793 3.22475 17.5455 3.23769L16.6028 3.66744L16.3733 3.54444L16.2068 2.52219C16.1883 2.44104 16.1385 2.37046 16.0683 2.3258C15.9981 2.28113 15.9131 2.266 15.8318 2.28369C15.7964 2.29174 15.7627 2.30569 15.732 2.32494L14.8913 2.92944L14.6415 2.85444L14.2793 1.88469C14.2454 1.80813 14.1826 1.74814 14.1045 1.7179C14.0265 1.68766 13.9396 1.68966 13.863 1.72344C13.8299 1.73838 13.7995 1.75865 13.773 1.78344L13.0635 2.54244L12.8063 2.51769L12.2603 1.63494C12.2311 1.59362 12.1924 1.55991 12.1476 1.53664C12.1027 1.51337 12.0528 1.50122 12.0023 1.50122C11.9517 1.50122 11.9019 1.51337 11.857 1.53664C11.8121 1.55991 11.7734 1.59362 11.7443 1.63494L11.1983 2.51769L10.941 2.54244L10.2338 1.78344C10.1731 1.72578 10.092 1.69458 10.0083 1.69669C9.92462 1.6988 9.8452 1.73405 9.7875 1.79469C9.76271 1.82121 9.74244 1.85161 9.7275 1.88469L9.36225 2.84994L9.1125 2.92494L8.2725 2.32494C8.20173 2.28029 8.11616 2.26548 8.0345 2.28375C7.95285 2.30202 7.88175 2.35189 7.83675 2.42244C7.8175 2.45314 7.80355 2.48686 7.7955 2.52219L7.629 3.54444L7.3995 3.66744L6.456 3.23769C6.37812 3.20753 6.29145 3.20946 6.21499 3.24306C6.13852 3.27665 6.07848 3.33918 6.048 3.41694C6.03506 3.45153 6.02797 3.48803 6.027 3.52494L6.063 4.56219L5.8635 4.72494L4.85325 4.48794C4.81238 4.48083 4.7705 4.48185 4.73002 4.49093C4.68953 4.50001 4.65124 4.51698 4.61732 4.54087C4.58339 4.56476 4.55451 4.5951 4.53233 4.63016C4.51014 4.66522 4.49508 4.70431 4.488 4.74519C4.482 4.78094 4.482 4.81744 4.488 4.85319L4.725 5.86419L4.5615 6.06294L3.525 6.02694C3.47438 6.02826 3.42481 6.04171 3.38046 6.06616C3.3361 6.09061 3.29827 6.12535 3.27013 6.16746C3.24198 6.20956 3.22435 6.2578 3.21872 6.30813C3.21309 6.35846 3.21962 6.40941 3.23775 6.45669L3.6675 7.39944L3.5445 7.62894L2.52225 7.79544C2.441 7.81372 2.37029 7.86344 2.3256 7.93371C2.2809 8.00399 2.26586 8.0891 2.28375 8.17044C2.2918 8.20577 2.30575 8.2395 2.325 8.27019L2.9295 9.11019L2.8545 9.36069L1.88475 9.72294C1.80819 9.75678 1.7482 9.81963 1.71796 9.89769C1.68772 9.97574 1.68972 10.0626 1.7235 10.1392C1.73823 10.1728 1.7588 10.2035 1.78425 10.2299L2.5425 10.9372L2.51775 11.1944L1.635 11.7404C1.59368 11.7696 1.55997 11.8082 1.5367 11.8531C1.51343 11.898 1.50128 11.9479 1.50128 11.9984C1.50128 12.049 1.51343 12.0988 1.5367 12.1437C1.55997 12.1886 1.59368 12.2273 1.635 12.2564L2.51775 12.8024L2.5425 13.0597L1.78425 13.7669C1.7266 13.8276 1.69539 13.9087 1.6975 13.9924C1.69961 14.0761 1.73486 14.1555 1.7955 14.2132C1.82174 14.238 1.8519 14.2583 1.88475 14.2732L2.8545 14.6354L2.9295 14.8859L2.325 15.7289C2.30283 15.764 2.28778 15.8031 2.28072 15.844C2.27365 15.8848 2.27471 15.9267 2.28384 15.9672C2.29296 16.0076 2.30997 16.0459 2.33389 16.0798C2.35781 16.1137 2.38818 16.1425 2.42325 16.1647C2.45395 16.1839 2.48767 16.1979 2.523 16.2059L3.54525 16.3724L3.66825 16.6027L3.2385 17.5454C3.20836 17.6235 3.21037 17.7104 3.24411 17.787C3.27784 17.8636 3.34055 17.9237 3.4185 17.9542C3.45283 17.9671 3.48908 17.9742 3.52575 17.9752L4.563 17.9392L4.72725 18.1387L4.4895 19.1497C4.47512 19.2319 4.49398 19.3165 4.54194 19.3849C4.58989 19.4532 4.66302 19.4997 4.74525 19.5142C4.78144 19.5209 4.81856 19.5209 4.85475 19.5142L5.8635 19.2749L6.063 19.4384L6.02625 20.4749C6.02713 20.5163 6.03615 20.557 6.05281 20.5949C6.06946 20.6327 6.09342 20.6669 6.12331 20.6955C6.1532 20.724 6.18844 20.7464 6.22699 20.7613C6.26555 20.7763 6.30667 20.7834 6.348 20.7824C6.38472 20.7819 6.42103 20.7747 6.45525 20.7614L7.398 20.3317L7.6275 20.4547L7.794 21.4762C7.8123 21.5575 7.86198 21.6282 7.93222 21.6731C8.00247 21.7179 8.08758 21.7331 8.169 21.7154C8.20444 21.7077 8.23822 21.6938 8.26875 21.6742L9.10875 21.0689L9.35925 21.1439L9.7215 22.1129C9.75563 22.1894 9.81868 22.2493 9.89684 22.2793C9.97501 22.3094 10.0619 22.3073 10.1385 22.2734C10.1714 22.2585 10.2015 22.2382 10.2278 22.2134L10.935 21.4552L11.1923 21.4807L11.7383 22.3634C11.7868 22.4318 11.8605 22.4781 11.9432 22.4922C12.0259 22.5063 12.1108 22.4869 12.1793 22.4384C12.2084 22.4179 12.2338 22.3926 12.2543 22.3634L12.8003 21.4807L13.0575 21.4552L13.7648 22.2134C13.8254 22.2711 13.9065 22.3023 13.9902 22.3002C14.0739 22.2981 14.1533 22.2628 14.211 22.2022C14.2358 22.176 14.2561 22.1458 14.271 22.1129L14.6333 21.1439L14.8838 21.0689L15.7238 21.6742C15.7588 21.6964 15.7979 21.7114 15.8388 21.7185C15.8797 21.7255 15.9215 21.7245 15.962 21.7154C16.0025 21.7062 16.0407 21.6892 16.0746 21.6653C16.1085 21.6414 16.1374 21.611 16.1595 21.5759C16.1788 21.5452 16.1927 21.5115 16.2008 21.4762L16.3673 20.4547L16.5968 20.3317L17.5395 20.7614C17.6174 20.7916 17.7041 20.7897 17.7805 20.7561C17.857 20.7225 17.917 20.66 17.9475 20.5822C17.9604 20.5479 17.9675 20.5116 17.9685 20.4749L17.9325 19.4369L18.1313 19.2734L19.1415 19.5112C19.2237 19.5256 19.3083 19.5069 19.3768 19.4591C19.4452 19.4113 19.4919 19.3383 19.5068 19.2562C19.5128 19.2199 19.5128 19.1829 19.5068 19.1467L19.275 18.1372L19.4385 17.9377L20.4758 17.9737C20.5594 17.9715 20.6387 17.9363 20.6964 17.8757C20.754 17.8151 20.7853 17.7341 20.7833 17.6504C20.7828 17.614 20.7757 17.5779 20.7623 17.5439L20.3325 16.6012L20.4555 16.3709L21.4778 16.2044C21.559 16.1862 21.6298 16.1365 21.6746 16.0662C21.7194 15.996 21.7347 15.9109 21.717 15.8294C21.7088 15.7936 21.6946 15.7593 21.675 15.7282L21.0705 14.8882L21.1455 14.6377L22.1153 14.2754C22.1531 14.2588 22.1874 14.2348 22.216 14.2049C22.2446 14.175 22.267 14.1397 22.282 14.1011C22.297 14.0625 22.3042 14.0214 22.3032 13.98C22.3023 13.9386 22.2932 13.8978 22.2765 13.8599C22.2618 13.8263 22.2412 13.7956 22.2158 13.7692L21.4575 13.0619L21.4823 12.8047L22.365 12.2587C22.4063 12.2295 22.44 12.1909 22.4633 12.146C22.4866 12.1011 22.4987 12.0513 22.4987 12.0007C22.4987 11.9501 22.4866 11.9003 22.4633 11.8554C22.44 11.8105 22.4063 11.7718 22.365 11.7427L21.483 11.1959Z" fill="url(#paint0_radial_415_187)"/>
</g>
<defs>
<radialGradient id="paint0_radial_415_187" cx="0" cy="0" r="1" gradientUnits="userSpaceOnUse" gradientTransform="translate(12.011 12.2526) rotate(-30.0007) scale(10.4983 6.3026)">
<stop stop-color="#7D7D7D"/>
<stop offset="0.267" stop-color="#7E7C7A"/>
<stop offset="0.45" stop-color="#817871"/>
<stop offset="0.608" stop-color="#867162"/>
<stop offset="0.753" stop-color="#8D684C"/>
<stop offset="0.886" stop-color="#965C30"/>
<stop offset="1" stop-color="#A04F12"/>
</radialGradient>
</defs>
</svg>
