<svg width="24" height="24" viewBox="0 0 24 24" fill="none" xmlns="http://www.w3.org/2000/svg">
<g id="logos:typescript-icon" clip-path="url(#clip0_415_106)">
<path id="Vector" d="M1.875 0H22.125C23.1606 0 24 0.839438 24 1.875V22.125C24 23.1606 23.1606 24 22.125 24H1.875C0.839438 24 0 23.1606 0 22.125V1.875C0 0.839438 0.839438 0 1.875 0Z" fill="#3178C6"/>
<path id="Vector_2" d="M14.1111 18.7945V21.3839C14.5322 21.5997 15.0303 21.7615 15.6052 21.8694C16.1802 21.9773 16.7862 22.0312 17.4233 22.0312C18.0442 22.0312 18.634 21.9719 19.1928 21.8532C19.7515 21.7345 20.2416 21.539 20.6626 21.2666C21.0837 20.9942 21.4171 20.6381 21.6628 20.1984C21.9084 19.7588 22.0312 19.2154 22.0312 18.568C22.0312 18.0987 21.961 17.6873 21.8207 17.334C21.6819 16.983 21.4755 16.6628 21.2133 16.3913C20.9488 16.1162 20.6316 15.8694 20.2618 15.6509C19.892 15.4325 19.4749 15.2261 19.0105 15.032C18.6704 14.8916 18.3654 14.7555 18.0954 14.6233C17.8255 14.4911 17.596 14.3563 17.4071 14.2187C17.2181 14.0812 17.0723 13.9355 16.9698 13.7817C16.8672 13.628 16.8159 13.4541 16.8159 13.2598C16.8159 13.0818 16.8618 12.9214 16.9536 12.7784C17.0453 12.6354 17.175 12.5127 17.3423 12.4103C17.5097 12.3077 17.7148 12.2282 17.9578 12.1715C18.2007 12.1148 18.4707 12.0865 18.7676 12.0865C18.9836 12.0865 19.2117 12.1027 19.4519 12.1351C19.6922 12.1674 19.9338 12.2173 20.1768 12.2848C20.419 12.352 20.6559 12.4372 20.8853 12.5397C21.1079 12.6383 21.3207 12.7575 21.5211 12.8957V10.4763C21.1269 10.3253 20.6963 10.2133 20.2294 10.1405C19.7624 10.0676 19.2265 10.0312 18.6218 10.0312C18.0064 10.0312 17.4233 10.0973 16.8727 10.2295C16.322 10.3616 15.8374 10.568 15.419 10.8485C15.0006 11.1291 14.6699 11.4864 14.4269 11.9207C14.184 12.3549 14.0625 12.8741 14.0625 13.4783C14.0625 14.2497 14.2852 14.9078 14.7307 15.4527C15.1761 15.9975 15.8522 16.4587 16.7592 16.8364C17.0941 16.9727 17.4262 17.1157 17.7553 17.2653C18.0631 17.4055 18.329 17.5511 18.553 17.7022C18.7771 17.8532 18.9539 18.0177 19.0835 18.1957C19.213 18.3738 19.2778 18.5761 19.2778 18.8027C19.2789 18.9658 19.237 19.1262 19.1563 19.268C19.0754 19.4108 18.9525 19.535 18.7879 19.6402C18.6233 19.7453 18.418 19.8276 18.1724 19.8869C17.9268 19.9462 17.6393 19.976 17.3099 19.976C16.7484 19.976 16.1924 19.8775 15.6417 19.6806C15.0909 19.4837 14.5808 19.1884 14.1111 18.7945ZM9.79519 12.3508H13.125V10.2188H3.84375V12.3508H7.15734V21.8438H9.79519V12.3508Z" fill="white"/>
</g>
<defs>
<clipPath id="clip0_415_106">
<rect width="24" height="24" fill="white"/>
</clipPath>
</defs>
</svg>
